<?xml version="1.0" encoding="UTF-8" standalone="no"?>
<!-- Created with Inkscape (http://www.inkscape.org/) -->
<svg
   xmlns:dc="http://purl.org/dc/elements/1.1/"
   xmlns:cc="http://web.resource.org/cc/"
   xmlns:rdf="http://www.w3.org/1999/02/22-rdf-syntax-ns#"
   xmlns:svg="http://www.w3.org/2000/svg"
   xmlns="http://www.w3.org/2000/svg"
   xmlns:xlink="http://www.w3.org/1999/xlink"
   xmlns:sodipodi="http://sodipodi.sourceforge.net/DTD/sodipodi-0.dtd"
   xmlns:inkscape="http://www.inkscape.org/namespaces/inkscape"
   version="1.0"
   width="1024"
   height="819"
   id="svg2"
   sodipodi:version="0.32"
   inkscape:version="0.45.1"
   sodipodi:docname="2.svg"
   inkscape:output_extension="org.inkscape.output.svg.inkscape"
   sodipodi:docbase="G:\">
  <metadata
     id="metadata2212">
    <rdf:RDF>
      <cc:Work
         rdf:about="">
        <dc:format>image/svg+xml</dc:format>
        <dc:type
           rdf:resource="http://purl.org/dc/dcmitype/StillImage" />
      </cc:Work>
    </rdf:RDF>
  </metadata>
  <sodipodi:namedview
     inkscape:window-height="1006"
     inkscape:window-width="1179"
     inkscape:pageshadow="2"
     inkscape:pageopacity="0.0"
     guidetolerance="10.0"
     gridtolerance="10.0"
     objecttolerance="10.0"
     borderopacity="1.0"
     bordercolor="#666666"
     pagecolor="#ffffff"
     id="base"
     inkscape:zoom="0.7"
     inkscape:cx="321.23034"
     inkscape:cy="308.45045"
     inkscape:window-x="44"
     inkscape:window-y="25"
     inkscape:current-layer="layer4"
     showgrid="true"
     inkscape:grid-points="true" />
  <defs
     id="defs4" />
  <g
     inkscape:groupmode="layer"
     id="layer3"
     style="opacity:0.47252748;display:inline"
     sodipodi:insensitive="true">
    <image
       y="-101"
       x="-1980"
       id="image2330"
       height="2119.7917"
       width="5500"
       sodipodi:absref="G:\numbers.bmp"
       xlink:href="numbers.bmp" />
    <g
       style="opacity:0.21978024"
       id="layer1"
       transform="translate(-950,-2260)" />
  </g>
  <g
     inkscape:groupmode="layer"
     id="layer4"
     style="opacity:1">
    <path
       style="fill:none;fill-rule:evenodd;stroke:#000000;stroke-width:1.10217857px;stroke-linecap:butt;stroke-linejoin:miter;stroke-opacity:1"
       d="M 43.843456,818.94891 C 65.887026,818.94891 374.49701,818.94891 440.62772,818.94891 C 506.75844,818.94891 506.75844,708.73106 440.62772,708.73106 C 374.49701,708.73106 220.19202,708.73106 176.10488,708.73106 C 132.01774,708.73106 209.17023,587.49142 275.30095,521.36071 C 341.43166,455.23 506.75844,378.0775 506.75844,201.72894 C 506.75844,69.467515 396.54058,3.3368035 264.27916,3.3368035 C 132.01774,3.3368035 43.843456,124.57644 43.843456,223.77251 C 43.843456,300.925 143.03952,289.90322 154.06131,223.77251 C 165.08309,157.6418 198.14845,113.55466 264.27916,113.55466 C 330.40987,113.55466 396.54058,135.59823 396.54058,201.72894 C 396.54058,311.94679 286.32273,345.01215 187.12666,455.23 C 87.930596,565.44785 65.887026,620.55678 21.799885,708.73106 C -22.287256,796.90534 21.799885,818.94891 43.843456,818.94891 z "
       id="path2339"
       sodipodi:nodetypes="czzczczczzczzz" />
  </g>
</svg>
