<?xml version="1.0" encoding="UTF-8" standalone="no"?>
<!-- Created with Inkscape (http://www.inkscape.org/) -->
<svg
   xmlns:dc="http://purl.org/dc/elements/1.1/"
   xmlns:cc="http://web.resource.org/cc/"
   xmlns:rdf="http://www.w3.org/1999/02/22-rdf-syntax-ns#"
   xmlns:svg="http://www.w3.org/2000/svg"
   xmlns="http://www.w3.org/2000/svg"
   xmlns:xlink="http://www.w3.org/1999/xlink"
   xmlns:sodipodi="http://sodipodi.sourceforge.net/DTD/sodipodi-0.dtd"
   xmlns:inkscape="http://www.inkscape.org/namespaces/inkscape"
   version="1.0"
   width="1024"
   height="819"
   id="svg2"
   sodipodi:version="0.32"
   inkscape:version="0.45.1"
   sodipodi:docname="3.svg"
   inkscape:output_extension="org.inkscape.output.svg.inkscape"
   sodipodi:docbase="G:\">
  <metadata
     id="metadata2212">
    <rdf:RDF>
      <cc:Work
         rdf:about="">
        <dc:format>image/svg+xml</dc:format>
        <dc:type
           rdf:resource="http://purl.org/dc/dcmitype/StillImage" />
      </cc:Work>
    </rdf:RDF>
  </metadata>
  <sodipodi:namedview
     inkscape:window-height="1006"
     inkscape:window-width="1179"
     inkscape:pageshadow="2"
     inkscape:pageopacity="0.0"
     guidetolerance="10.0"
     gridtolerance="10.0"
     objecttolerance="10.0"
     borderopacity="1.0"
     bordercolor="#666666"
     pagecolor="#ffffff"
     id="base"
     inkscape:zoom="0.7"
     inkscape:cx="302.31032"
     inkscape:cy="409.56713"
     inkscape:window-x="44"
     inkscape:window-y="25"
     inkscape:current-layer="layer4"
     showgrid="true"
     inkscape:grid-points="false"
     inkscape:grid-bbox="false" />
  <defs
     id="defs4" />
  <g
     inkscape:groupmode="layer"
     id="layer3"
     style="opacity:0.47252748;display:inline"
     sodipodi:insensitive="true">
    <image
       y="-101"
       x="-2900"
       id="image2330"
       height="2119.7917"
       width="5500"
       sodipodi:absref="G:\numbers.bmp"
       xlink:href="numbers.bmp" />
    <g
       style="opacity:0.21978024"
       id="layer1"
       transform="translate(-950,-2260)" />
  </g>
  <g
     inkscape:groupmode="layer"
     id="layer4"
     style="opacity:1">
    <path
       style="fill:none;fill-rule:evenodd;stroke:#000000;stroke-width:1.07220817px;stroke-linecap:butt;stroke-linejoin:miter;stroke-opacity:1"
       d="M 121.87786,3.5856985 C 236.24673,3.5856985 350.61559,3.5856985 464.98447,3.5856985 C 507.87279,3.5856985 529.31696,67.918188 486.42863,110.80651 C 436.39225,160.8429 386.35587,210.87927 336.31949,260.91566 C 400.65198,260.91566 572.20528,325.24814 572.20528,539.68978 C 572.20528,754.13141 422.09614,818.4639 293.43116,818.4639 C 121.87786,818.4639 46.823285,679.07684 3.9349589,582.5781 C -17.509204,539.68978 68.267448,480.71833 100.43369,539.68978 C 164.76618,646.91059 186.21035,711.24308 293.43116,711.24308 C 400.65198,711.24308 464.98447,668.35475 464.98447,539.68978 C 464.98447,411.0248 293.43116,368.13647 186.21035,368.13647 C 143.32202,368.13647 143.32202,303.80398 186.21035,260.91566 C 236.24673,210.87927 286.2831,160.8429 336.31949,110.80651 C 264.83894,110.80651 193.35841,110.80651 121.87786,110.80651 C 57.545367,110.80651 57.545367,3.5856985 121.87786,3.5856985 z "
       id="path2341"
       sodipodi:nodetypes="cccczcccczccccc" />
  </g>
</svg>
