<?xml version="1.0" encoding="UTF-8" standalone="no"?>
<!-- Created with Inkscape (http://www.inkscape.org/) -->
<svg
   xmlns:dc="http://purl.org/dc/elements/1.1/"
   xmlns:cc="http://web.resource.org/cc/"
   xmlns:rdf="http://www.w3.org/1999/02/22-rdf-syntax-ns#"
   xmlns:svg="http://www.w3.org/2000/svg"
   xmlns="http://www.w3.org/2000/svg"
   xmlns:xlink="http://www.w3.org/1999/xlink"
   xmlns:sodipodi="http://sodipodi.sourceforge.net/DTD/sodipodi-0.dtd"
   xmlns:inkscape="http://www.inkscape.org/namespaces/inkscape"
   version="1.0"
   width="1024"
   height="819"
   id="svg2"
   sodipodi:version="0.32"
   inkscape:version="0.45.1"
   sodipodi:docname="4.svg"
   inkscape:output_extension="org.inkscape.output.svg.inkscape"
   sodipodi:docbase="G:\">
  <metadata
     id="metadata2212">
    <rdf:RDF>
      <cc:Work
         rdf:about="">
        <dc:format>image/svg+xml</dc:format>
        <dc:type
           rdf:resource="http://purl.org/dc/dcmitype/StillImage" />
      </cc:Work>
    </rdf:RDF>
  </metadata>
  <sodipodi:namedview
     inkscape:window-height="1006"
     inkscape:window-width="1179"
     inkscape:pageshadow="2"
     inkscape:pageopacity="0.0"
     guidetolerance="10.0"
     gridtolerance="10.0"
     objecttolerance="10.0"
     borderopacity="1.0"
     bordercolor="#666666"
     pagecolor="#ffffff"
     id="base"
     inkscape:zoom="0.7"
     inkscape:cx="251.14092"
     inkscape:cy="535.31434"
     inkscape:window-x="44"
     inkscape:window-y="25"
     inkscape:current-layer="layer4"
     showgrid="true"
     inkscape:grid-points="false" />
  <defs
     id="defs4" />
  <g
     inkscape:groupmode="layer"
     id="layer3"
     style="opacity:0.47252748;display:inline"
     sodipodi:insensitive="true">
    <image
       y="-81"
       x="-3800"
       id="image2330"
       height="2119.7917"
       width="5500"
       sodipodi:absref="G:\numbers.bmp"
       xlink:href="numbers.bmp" />
    <g
       style="opacity:0.21978024"
       id="layer1"
       transform="translate(-950,-2260)" />
  </g>
  <g
     inkscape:groupmode="layer"
     id="layer4"
     style="opacity:1">
    <path
       style="fill:none;fill-rule:evenodd;stroke:#000000;stroke-width:1.0812906px;stroke-linecap:butt;stroke-linejoin:miter;stroke-opacity:1"
       d="M 26.415453,661.67221 C 141.75313,661.67221 246.27789,661.67221 361.61556,661.67221 C 361.61556,704.92384 361.61556,726.54965 361.61556,769.80127 C 361.61556,834.67871 469.74463,834.67871 469.74463,769.80127 C 469.74463,726.54965 469.74463,704.92384 469.74463,661.67221 C 505.78764,661.67221 541.83067,661.67221 577.87369,661.67221 C 642.75113,661.67221 642.75113,553.54314 577.87369,553.54314 C 541.83067,553.54314 505.78764,553.54314 469.74463,553.54314 C 469.74463,495.87431 469.74463,438.20547 469.74463,380.53664 C 469.74463,315.6592 361.61556,315.6592 361.61556,380.53664 C 361.61556,438.20547 361.61556,495.87431 361.61556,553.54314 C 282.32091,553.54314 203.02626,553.54314 123.73161,553.54314 C 181.40045,394.95384 239.06929,236.36455 296.73812,77.775253 C 318.36393,12.897809 253.48649,-30.353818 210.23487,34.523622 C 145.35743,207.53013 80.479986,380.53664 15.602546,553.54314 C 4.7896397,575.16896 -16.836174,661.67221 26.415453,661.67221 z "
       id="path2343"
       sodipodi:nodetypes="cccccccccccccccc" />
  </g>
</svg>
