<?xml version="1.0" encoding="UTF-8" standalone="no"?>
<!-- Created with Inkscape (http://www.inkscape.org/) -->
<svg
   xmlns:dc="http://purl.org/dc/elements/1.1/"
   xmlns:cc="http://web.resource.org/cc/"
   xmlns:rdf="http://www.w3.org/1999/02/22-rdf-syntax-ns#"
   xmlns:svg="http://www.w3.org/2000/svg"
   xmlns="http://www.w3.org/2000/svg"
   xmlns:xlink="http://www.w3.org/1999/xlink"
   xmlns:sodipodi="http://sodipodi.sourceforge.net/DTD/sodipodi-0.dtd"
   xmlns:inkscape="http://www.inkscape.org/namespaces/inkscape"
   version="1.0"
   width="1024"
   height="819"
   id="svg2"
   sodipodi:version="0.32"
   inkscape:version="0.45.1"
   sodipodi:docname="5.svg"
   inkscape:output_extension="org.inkscape.output.svg.inkscape"
   sodipodi:docbase="G:\">
  <metadata
     id="metadata2212">
    <rdf:RDF>
      <cc:Work
         rdf:about="">
        <dc:format>image/svg+xml</dc:format>
        <dc:type
           rdf:resource="http://purl.org/dc/dcmitype/StillImage" />
      </cc:Work>
    </rdf:RDF>
  </metadata>
  <sodipodi:namedview
     inkscape:window-height="1006"
     inkscape:window-width="1179"
     inkscape:pageshadow="2"
     inkscape:pageopacity="0.0"
     guidetolerance="10.0"
     gridtolerance="10.0"
     objecttolerance="10.0"
     borderopacity="1.0"
     bordercolor="#666666"
     pagecolor="#ffffff"
     id="base"
     inkscape:zoom="0.7"
     inkscape:cx="226.95513"
     inkscape:cy="426.46977"
     inkscape:window-x="44"
     inkscape:window-y="25"
     inkscape:current-layer="layer4"
     showgrid="true"
     inkscape:grid-points="true" />
  <defs
     id="defs4" />
  <g
     inkscape:groupmode="layer"
     id="layer3"
     style="opacity:0.47252748;display:inline"
     sodipodi:insensitive="true">
    <image
       y="-91"
       x="-4880"
       id="image2330"
       height="2119.7917"
       width="5500"
       sodipodi:absref="G:\numbers.bmp"
       xlink:href="numbers.bmp" />
    <g
       style="opacity:0.21978024"
       id="layer1"
       transform="translate(-950,-2260)" />
  </g>
  <g
     inkscape:groupmode="layer"
     id="layer4"
     style="opacity:1">
    <path
       style="fill:none;fill-rule:evenodd;stroke:#000000;stroke-width:1.07226813px;stroke-linecap:butt;stroke-linejoin:miter;stroke-opacity:1"
       d="M 36.126103,3.5400801 C 150.50138,3.5400801 264.87664,3.5400801 379.25191,3.5400801 C 443.588,3.5400801 443.588,110.76689 379.25191,110.76689 C 300.61892,110.76689 221.98591,110.76689 143.35292,110.76689 C 143.35292,167.95452 143.35292,225.14217 143.35292,282.3298 C 200.54055,282.3298 257.72819,282.3298 314.91582,282.3298 C 379.25191,282.3298 529.36945,368.11125 529.36945,539.67415 C 529.36945,711.23705 379.25191,818.46387 229.13437,818.46387 C 79.016829,818.46387 36.126103,743.4051 14.680741,711.23705 C -28.209985,657.62365 36.126103,582.56488 79.016829,625.4556 C 121.90756,668.34633 121.90756,711.23705 229.13437,711.23705 C 336.36119,711.23705 422.14264,646.90096 422.14264,539.67415 C 422.14264,432.44734 336.36119,389.55661 314.91582,389.55661 C 257.72819,389.55661 200.54055,389.55661 143.35292,389.55661 C 100.46219,453.8927 36.126103,432.44734 36.126103,389.55661 C 36.126103,260.88443 36.126103,132.21226 36.126103,3.5400801 z "
       id="path2345"
       sodipodi:nodetypes="cccccczcczzzcccc" />
  </g>
</svg>
