<?xml version="1.0" encoding="UTF-8" standalone="no"?>
<!-- Created with Inkscape (http://www.inkscape.org/) -->
<svg
   xmlns:dc="http://purl.org/dc/elements/1.1/"
   xmlns:cc="http://web.resource.org/cc/"
   xmlns:rdf="http://www.w3.org/1999/02/22-rdf-syntax-ns#"
   xmlns:svg="http://www.w3.org/2000/svg"
   xmlns="http://www.w3.org/2000/svg"
   xmlns:xlink="http://www.w3.org/1999/xlink"
   xmlns:sodipodi="http://sodipodi.sourceforge.net/DTD/sodipodi-0.dtd"
   xmlns:inkscape="http://www.inkscape.org/namespaces/inkscape"
   version="1.0"
   width="1024"
   height="819"
   id="svg2"
   sodipodi:version="0.32"
   inkscape:version="0.45.1"
   sodipodi:docname="C.svg"
   inkscape:output_extension="org.inkscape.output.svg.inkscape"
   sodipodi:docbase="G:\">
  <metadata
     id="metadata2438">
    <rdf:RDF>
      <cc:Work
         rdf:about="">
        <dc:format>image/svg+xml</dc:format>
        <dc:type
           rdf:resource="http://purl.org/dc/dcmitype/StillImage" />
      </cc:Work>
    </rdf:RDF>
  </metadata>
  <sodipodi:namedview
     inkscape:window-height="942"
     inkscape:window-width="1073"
     inkscape:pageshadow="2"
     inkscape:pageopacity="0.0"
     guidetolerance="10.0"
     gridtolerance="10.0"
     objecttolerance="10.0"
     borderopacity="1.0"
     bordercolor="#666666"
     pagecolor="#ffffff"
     id="base"
     showgrid="true"
     inkscape:grid-points="false"
     inkscape:zoom="0.7"
     inkscape:cx="382.4862"
     inkscape:cy="434.41869"
     inkscape:window-x="146"
     inkscape:window-y="112"
     inkscape:current-layer="svg2"
     inkscape:grid-bbox="true" />
  <defs
     id="defs4" />
  <g
     style="opacity:0.21978024"
     id="layer1">
    <image
       xlink:href="letters.bmp"
       x="-2020"
       y="-47.774902"
       width="6600"
       height="4346.7749"
       id="image2285" />
  </g>
  <g
     id="layer2"
     transform="matrix(1.0471776,0,0,1.0471776,-20.419964,-18.218522)">
    <path
       d="M 554.375,692.03572 C 514.375,752.03572 460,799 320,799 C 180,799 20,639 20,399 C 20,159 180,19 320,19 C 460,19 528.57143,92.571429 548.57143,112.57143 C 578.57143,152.57143 520,229 460,179 C 450,171.85714 420,139 320,139 C 220,139 120,259 120,399 C 120,539 220,679 320,679 C 420,679 446.42857,634.71428 460,619 C 500,559 594.375,632.03572 554.375,692.03572 z "
       style="fill:none;fill-rule:evenodd;stroke:#000000;stroke-width:1px;stroke-linecap:butt;stroke-linejoin:miter;stroke-opacity:1"
       id="path2316"
       sodipodi:nodetypes="czzzcczzzcc" />
  </g>
</svg>
