<?xml version="1.0" encoding="UTF-8" standalone="no"?>
<!-- Created with Inkscape (http://www.inkscape.org/) -->
<svg
   xmlns:dc="http://purl.org/dc/elements/1.1/"
   xmlns:cc="http://web.resource.org/cc/"
   xmlns:rdf="http://www.w3.org/1999/02/22-rdf-syntax-ns#"
   xmlns:svg="http://www.w3.org/2000/svg"
   xmlns="http://www.w3.org/2000/svg"
   xmlns:xlink="http://www.w3.org/1999/xlink"
   xmlns:sodipodi="http://sodipodi.sourceforge.net/DTD/sodipodi-0.dtd"
   xmlns:inkscape="http://www.inkscape.org/namespaces/inkscape"
   version="1.0"
   width="1024"
   height="819"
   id="svg2"
   sodipodi:version="0.32"
   inkscape:version="0.45.1"
   sodipodi:docname="D.svg"
   inkscape:output_extension="org.inkscape.output.svg.inkscape"
   sodipodi:docbase="C:\Documents and Settings\spindler.p\My Documents\Fonts\MS33558">
  <metadata
     id="metadata2476">
    <rdf:RDF>
      <cc:Work
         rdf:about="">
        <dc:format>image/svg+xml</dc:format>
        <dc:type
           rdf:resource="http://purl.org/dc/dcmitype/StillImage" />
      </cc:Work>
    </rdf:RDF>
  </metadata>
  <sodipodi:namedview
     inkscape:window-height="985"
     inkscape:window-width="1081"
     inkscape:pageshadow="2"
     inkscape:pageopacity="0.0"
     guidetolerance="10.0"
     gridtolerance="10.0"
     objecttolerance="10.0"
     borderopacity="1.0"
     bordercolor="#666666"
     pagecolor="#ffffff"
     id="base"
     inkscape:grid-points="false"
     showgrid="true"
     inkscape:zoom="0.7"
     inkscape:cx="179.4532"
     inkscape:cy="428.79891"
     inkscape:window-x="177"
     inkscape:window-y="114"
     inkscape:current-layer="svg2"
     inkscape:grid-bbox="false" />
  <defs
     id="defs4" />
  <g
     style="opacity:0.21978024"
     id="layer1">
    <image
       xlink:href="letters.bmp"
       x="-2980"
       y="-41"
       width="6600"
       height="4346.7749"
       id="image2285" />
  </g>
  <g
     id="layer2"
     transform="matrix(1.0457289,0,0,1.0457289,-20.391714,-17.060271)">
    <path
       d="M 20,751.86951 C 19.947175,775.77628 43.80112,799 67.484303,799 C 151.6562,799 235.8281,799 320,799 C 420,799 540,659 540,399 C 540,199 420,19 320,19 C 236.9096,19 150.40394,19 67.31354,19 C 43.914962,19 19.833333,43.931346 20.341525,67.838115 C 20.341525,327.83812 20,491.86951 20,751.86951 z "
       style="fill:none;fill-rule:evenodd;stroke:#000000;stroke-width:1px;stroke-linecap:butt;stroke-linejoin:miter;stroke-opacity:1"
       id="path2318"
       sodipodi:nodetypes="cssssscc" />
    <path
       d="M 120,119 C 120,299 120,519 120,699 C 180,699 240,699 300,699 C 380,699 440,599 440,419 C 440,259 380,119 300,119 C 240,119 180,119 120,119 z "
       style="fill:none;fill-rule:evenodd;stroke:#000000;stroke-width:1px;stroke-linecap:butt;stroke-linejoin:miter;stroke-opacity:1"
       id="path2320"
       sodipodi:nodetypes="ccsssc" />
  </g>
</svg>
