<?xml version="1.0" encoding="UTF-8" standalone="no"?>
<!-- Created with Inkscape (http://www.inkscape.org/) -->
<svg
   xmlns:dc="http://purl.org/dc/elements/1.1/"
   xmlns:cc="http://web.resource.org/cc/"
   xmlns:rdf="http://www.w3.org/1999/02/22-rdf-syntax-ns#"
   xmlns:svg="http://www.w3.org/2000/svg"
   xmlns="http://www.w3.org/2000/svg"
   xmlns:xlink="http://www.w3.org/1999/xlink"
   xmlns:sodipodi="http://sodipodi.sourceforge.net/DTD/sodipodi-0.dtd"
   xmlns:inkscape="http://www.inkscape.org/namespaces/inkscape"
   version="1.0"
   width="1024"
   height="819"
   id="svg2"
   sodipodi:version="0.32"
   inkscape:version="0.45.1"
   sodipodi:docname="K.svg"
   inkscape:output_extension="org.inkscape.output.svg.inkscape"
   sodipodi:docbase="G:\">
  <metadata
     id="metadata2556">
    <rdf:RDF>
      <cc:Work
         rdf:about="">
        <dc:format>image/svg+xml</dc:format>
        <dc:type
           rdf:resource="http://purl.org/dc/dcmitype/StillImage" />
      </cc:Work>
    </rdf:RDF>
  </metadata>
  <sodipodi:namedview
     inkscape:window-height="957"
     inkscape:window-width="1136"
     inkscape:pageshadow="2"
     inkscape:pageopacity="0.0"
     guidetolerance="10.0"
     gridtolerance="10.0"
     objecttolerance="10.0"
     borderopacity="1.0"
     bordercolor="#666666"
     pagecolor="#ffffff"
     id="base"
     showgrid="true"
     inkscape:grid-points="true"
     inkscape:zoom="0.35"
     inkscape:cx="462.40366"
     inkscape:cy="785.81937"
     inkscape:window-x="66"
     inkscape:window-y="87"
     inkscape:current-layer="svg2" />
  <defs
     id="defs4" />
  <g
     style="opacity:0.21978024"
     id="layer1">
    <image
       xlink:href="letters.bmp"
       x="-2960"
       y="-1201"
       width="6600"
       height="4346.7749"
       id="image2285" />
  </g>
  <g
     id="layer2"
     transform="matrix(1.0310834,0,0,1.0310834,-20.106127,-10.506623)">
    <path
       d="M 20,59 L 20,759 C 20,819 120,819 120,759 L 120,449 L 200,369 C 210,359 240,359 250,369 L 464.5,769.5 C 504.5,839.5 594.5,789.5 564.5,729.5 L 340,319 C 330,299 330,279 340,259 L 500,119 C 540,79 480,9 430,49 L 120,309 L 120,59 C 120,-1 20,-1 20,59 z "
       style="fill:none;fill-rule:evenodd;stroke:#000000;stroke-width:1px;stroke-linecap:butt;stroke-linejoin:miter;stroke-opacity:1"
       id="path2520"
       sodipodi:nodetypes="ccccccccccccccc" />
  </g>
</svg>
