<?xml version="1.0" encoding="UTF-8" standalone="no"?>
<!-- Created with Inkscape (http://www.inkscape.org/) -->
<svg
   xmlns:dc="http://purl.org/dc/elements/1.1/"
   xmlns:cc="http://web.resource.org/cc/"
   xmlns:rdf="http://www.w3.org/1999/02/22-rdf-syntax-ns#"
   xmlns:svg="http://www.w3.org/2000/svg"
   xmlns="http://www.w3.org/2000/svg"
   xmlns:xlink="http://www.w3.org/1999/xlink"
   xmlns:sodipodi="http://sodipodi.sourceforge.net/DTD/sodipodi-0.dtd"
   xmlns:inkscape="http://www.inkscape.org/namespaces/inkscape"
   version="1.0"
   width="1024"
   height="819"
   id="svg2"
   sodipodi:version="0.32"
   inkscape:version="0.45.1"
   sodipodi:docname="S.svg"
   inkscape:output_extension="org.inkscape.output.svg.inkscape"
   sodipodi:docbase="G:\">
  <metadata
     id="metadata2212">
    <rdf:RDF>
      <cc:Work
         rdf:about="">
        <dc:format>image/svg+xml</dc:format>
        <dc:type
           rdf:resource="http://purl.org/dc/dcmitype/StillImage" />
      </cc:Work>
    </rdf:RDF>
  </metadata>
  <sodipodi:namedview
     inkscape:window-height="1006"
     inkscape:window-width="1179"
     inkscape:pageshadow="2"
     inkscape:pageopacity="0.0"
     guidetolerance="10.0"
     gridtolerance="10.0"
     objecttolerance="10.0"
     borderopacity="1.0"
     bordercolor="#666666"
     pagecolor="#ffffff"
     id="base"
     inkscape:zoom="0.7"
     inkscape:cx="588.38241"
     inkscape:cy="296.74536"
     inkscape:window-x="44"
     inkscape:window-y="25"
     inkscape:current-layer="layer4"
     showgrid="true"
     inkscape:grid-points="false"
     inkscape:grid-bbox="false" />
  <defs
     id="defs4" />
  <g
     inkscape:groupmode="layer"
     id="layer3"
     sodipodi:insensitive="true">
    <g
       style="opacity:0.21978024"
       id="layer1"
       transform="translate(20,-1153.2251)">
      <image
         xlink:href="letters.bmp"
         x="-3940"
         y="-1207.7749"
         width="6600"
         height="4346.7749"
         id="image2285" />
    </g>
  </g>
  <g
     inkscape:groupmode="layer"
     id="layer4">
    <path
       style="fill:none;fill-rule:evenodd;stroke:#000000;stroke-width:1.0448904px;stroke-linecap:butt;stroke-linejoin:miter;stroke-opacity:1"
       d="M 42.318062,191.54331 C 42.318062,66.156456 125.90929,3.4630314 272.19395,3.4630314 C 418.47861,3.4630314 522.96765,107.95207 533.41656,170.6455 C 543.86546,233.33892 460.27423,254.23673 439.37642,191.54331 C 418.47861,128.84988 334.88738,107.95207 272.19395,107.95207 C 209.50053,107.95207 146.8071,128.84988 146.8071,191.54331 C 146.8071,275.13454 272.19395,296.03235 355.78519,337.82796 C 439.37642,379.62358 564.76327,421.4192 564.76327,609.49947 C 564.76327,797.57975 387.1319,818.47755 293.09176,818.47755 C 188.60272,818.47755 0.52244521,776.68194 0.52244521,588.60166 C 0.52244521,505.01043 105.01149,525.90824 105.01149,588.60166 C 105.01149,672.1929 230.39834,713.98851 293.09176,713.98851 C 355.78519,713.98851 460.27423,693.09071 460.27423,609.49947 C 460.27423,525.90824 397.5808,463.21481 293.09176,421.4192 C 188.60272,379.62358 42.318062,316.93016 42.318062,191.54331 z "
       id="path2256"
       sodipodi:nodetypes="czzzzzzzzcczzzz" />
  </g>
</svg>
