<?xml version="1.0" encoding="UTF-8" standalone="no"?>
<!-- Created with Inkscape (http://www.inkscape.org/) -->
<svg
   xmlns:dc="http://purl.org/dc/elements/1.1/"
   xmlns:cc="http://web.resource.org/cc/"
   xmlns:rdf="http://www.w3.org/1999/02/22-rdf-syntax-ns#"
   xmlns:svg="http://www.w3.org/2000/svg"
   xmlns="http://www.w3.org/2000/svg"
   xmlns:sodipodi="http://sodipodi.sourceforge.net/DTD/sodipodi-0.dtd"
   xmlns:inkscape="http://www.inkscape.org/namespaces/inkscape"
   width="1000"
   height="1000"
   id="svg2"
   sodipodi:version="0.32"
   inkscape:version="0.45.1"
   version="1.0"
   sodipodi:docbase="G:\DIN1451H"
   sodipodi:docname="4.svg"
   inkscape:output_extension="org.inkscape.output.svg.inkscape">
  <defs
     id="defs4" />
  <sodipodi:namedview
     id="base"
     pagecolor="#ffffff"
     bordercolor="#666666"
     borderopacity="1.0"
     gridtolerance="50.9"
     guidetolerance="10"
     objecttolerance="22.2"
     inkscape:pageopacity="0.0"
     inkscape:pageshadow="2"
     inkscape:zoom="0.83"
     inkscape:cx="342.08422"
     inkscape:cy="353.53569"
     inkscape:document-units="px"
     inkscape:current-layer="layer1"
     width="1000px"
     height="1000px"
     showgrid="true"
     gridspacingx="10px"
     gridspacingy="10px"
     gridempspacing="10"
     inkscape:grid-points="true"
     inkscape:grid-bbox="false"
     inkscape:object-paths="false"
     inkscape:object-points="true"
     inkscape:window-width="963"
     inkscape:window-height="1010"
     inkscape:window-x="479"
     inkscape:window-y="58" />
  <metadata
     id="metadata7">
    <rdf:RDF>
      <cc:Work
         rdf:about="">
        <dc:format>image/svg+xml</dc:format>
        <dc:type
           rdf:resource="http://purl.org/dc/dcmitype/StillImage" />
      </cc:Work>
    </rdf:RDF>
  </metadata>
  <g
     inkscape:label="Layer 1"
     inkscape:groupmode="layer"
     id="layer1">
    <path
       style="fill:none;fill-opacity:1;fill-rule:evenodd;stroke:#000000;stroke-width:1;stroke-linecap:round;stroke-linejoin:round;stroke-miterlimit:4;stroke-dasharray:none;stroke-opacity:1"
       d="M 281.75,249.34375 C 259.86036,248.68901 240.09144,262.35375 232.96875,283.0625 L 52.96875,783.0625 C 47.456277,798.3802 49.74532,815.4225 59.104308,828.74274 C 68.463295,842.06297 83.720589,849.99359 100,850 L 300,850 L 300,900 C 299.74499,918.0318 309.21876,934.80407 324.79364,943.89439 C 340.36852,952.9847 359.63148,952.9847 375.20636,943.89439 C 390.78124,934.80407 400.25501,918.0318 400,900 L 400,850 C 418.0318,850.25501 434.80407,840.78124 443.89439,825.20636 C 452.9847,809.63148 452.9847,790.36852 443.89439,774.79364 C 434.80407,759.21876 418.0318,749.74499 400,750 L 400,700 C 400.25501,681.9682 390.78124,665.19593 375.20636,656.10561 C 359.63148,647.0153 340.36852,647.0153 324.79364,656.10561 C 309.21876,665.19593 299.74499,681.9682 300,700 L 300,750 L 171.125,750 L 327.03125,316.9375 C 332.71662,301.82945 330.75909,284.90607 321.77488,271.49486 C 312.79067,258.08365 297.88493,249.83431 281.75,249.34375 z "
       id="path2158" />
  </g>
</svg>
