<?xml version="1.0" encoding="UTF-8" standalone="no"?>
<!-- Created with Inkscape (http://www.inkscape.org/) -->
<svg
   xmlns:dc="http://purl.org/dc/elements/1.1/"
   xmlns:cc="http://web.resource.org/cc/"
   xmlns:rdf="http://www.w3.org/1999/02/22-rdf-syntax-ns#"
   xmlns:svg="http://www.w3.org/2000/svg"
   xmlns="http://www.w3.org/2000/svg"
   xmlns:sodipodi="http://sodipodi.sourceforge.net/DTD/sodipodi-0.dtd"
   xmlns:inkscape="http://www.inkscape.org/namespaces/inkscape"
   width="1000"
   height="1000"
   id="svg2"
   sodipodi:version="0.32"
   inkscape:version="0.45.1"
   version="1.0"
   sodipodi:docbase="G:\DIN1451H"
   sodipodi:docname="6.svg"
   inkscape:output_extension="org.inkscape.output.svg.inkscape">
  <defs
     id="defs4" />
  <sodipodi:namedview
     id="base"
     pagecolor="#ffffff"
     bordercolor="#666666"
     borderopacity="1.0"
     gridtolerance="50.9"
     guidetolerance="10"
     objecttolerance="22.2"
     inkscape:pageopacity="0.0"
     inkscape:pageshadow="2"
     inkscape:zoom="1.1737973"
     inkscape:cx="331.00308"
     inkscape:cy="391.12804"
     inkscape:document-units="px"
     inkscape:current-layer="layer1"
     width="1000px"
     height="1000px"
     showgrid="true"
     gridspacingx="10px"
     gridspacingy="10px"
     gridempspacing="10"
     inkscape:grid-points="true"
     inkscape:grid-bbox="false"
     inkscape:object-paths="false"
     inkscape:object-points="true"
     inkscape:window-width="963"
     inkscape:window-height="1073"
     inkscape:window-x="435"
     inkscape:window-y="2" />
  <metadata
     id="metadata7">
    <rdf:RDF>
      <cc:Work
         rdf:about="">
        <dc:format>image/svg+xml</dc:format>
        <dc:type
           rdf:resource="http://purl.org/dc/dcmitype/StillImage" />
      </cc:Work>
    </rdf:RDF>
  </metadata>
  <g
     inkscape:label="Layer 1"
     inkscape:groupmode="layer"
     id="layer1">
    <path
       style="fill:none;fill-opacity:1;fill-rule:evenodd;stroke:#000000;stroke-width:1;stroke-linecap:round;stroke-linejoin:miter;stroke-miterlimit:4;stroke-dasharray:none;stroke-opacity:1"
       d="M 250,250 C 140.83333,250 50,340.83333 50,450 C 50,516.66667 50,619.44444 50,700 C 50,716.11111 50,736.66667 50,750 C 50,859.16667 140.83333,950 250,950 C 359.16667,950 450,859.16667 450,750 C 450,733.33333 450,716.66667 450,700 C 450,590.83333 359.16667,500 250,500 C 213.71318,500 179.57292,510.21555 150,527.625 C 150,500.96966 150,470.7 150,450 C 150,399.16667 199.16667,350 250,350 C 285.83333,350 304.43737,354.32585 315.6875,358.34375 C 326.93763,362.36165 331.66215,366.73733 347.625,374.71875 C 363.61748,382.84277 382.73623,381.77847 397.7282,371.92962 C 412.72017,362.08077 421.28836,344.95635 420.18227,327.05284 C 419.07618,309.14934 408.46527,293.20982 392.375,285.28125 C 388.33785,283.26267 373.06237,272.63835 349.3125,264.15625 C 325.56263,255.67415 294.16667,250 250,250 z M 250,600 C 300.83333,600 350,649.16667 350,700 C 350,716.66667 350,733.33333 350,750 C 350,800.83333 300.83333,850 250,850 C 199.16667,850 150,800.83333 150,750 C 150,736.66667 150,716.11111 150,700 C 150,649.16667 199.16667,600 250,600 z "
       id="path2162"
       sodipodi:nodetypes="cssssccscssscsscsccccsssc" />
  </g>
</svg>
