<?xml version="1.0" encoding="UTF-8" standalone="no"?>
<!-- Created with Inkscape (http://www.inkscape.org/) -->
<svg
   xmlns:dc="http://purl.org/dc/elements/1.1/"
   xmlns:cc="http://web.resource.org/cc/"
   xmlns:rdf="http://www.w3.org/1999/02/22-rdf-syntax-ns#"
   xmlns:svg="http://www.w3.org/2000/svg"
   xmlns="http://www.w3.org/2000/svg"
   xmlns:sodipodi="http://sodipodi.sourceforge.net/DTD/sodipodi-0.dtd"
   xmlns:inkscape="http://www.inkscape.org/namespaces/inkscape"
   width="1000"
   height="1000"
   id="svg2"
   sodipodi:version="0.32"
   inkscape:version="0.45.1"
   version="1.0"
   sodipodi:docbase="G:\DIN1451H"
   sodipodi:docname="9.svg"
   inkscape:output_extension="org.inkscape.output.svg.inkscape">
  <defs
     id="defs4" />
  <sodipodi:namedview
     id="base"
     pagecolor="#ffffff"
     bordercolor="#666666"
     borderopacity="1.0"
     gridtolerance="50.9"
     guidetolerance="10"
     objecttolerance="22.2"
     inkscape:pageopacity="0.0"
     inkscape:pageshadow="2"
     inkscape:zoom="0.83"
     inkscape:cx="215.38996"
     inkscape:cy="261.363"
     inkscape:document-units="px"
     inkscape:current-layer="layer1"
     width="1000px"
     height="1000px"
     showgrid="true"
     gridspacingx="10px"
     gridspacingy="10px"
     gridempspacing="10"
     inkscape:grid-points="true"
     inkscape:grid-bbox="false"
     inkscape:object-paths="false"
     inkscape:object-points="true"
     inkscape:window-width="963"
     inkscape:window-height="1069"
     inkscape:window-x="22"
     inkscape:window-y="29" />
  <metadata
     id="metadata7">
    <rdf:RDF>
      <cc:Work
         rdf:about="">
        <dc:format>image/svg+xml</dc:format>
        <dc:type
           rdf:resource="http://purl.org/dc/dcmitype/StillImage" />
      </cc:Work>
    </rdf:RDF>
  </metadata>
  <g
     inkscape:label="Layer 1"
     inkscape:groupmode="layer"
     id="layer1">
    <path
       style="fill:none;fill-opacity:1;fill-rule:evenodd;stroke:#000000;stroke-width:1;stroke-linecap:round;stroke-linejoin:miter;stroke-miterlimit:4;stroke-opacity:1"
       d="M 250,250 C 198.33333,250 150.97478,273.68717 114.1875,308.875 C 77.40022,344.06283 50,393.33333 50,450 C 50,466.66667 50,483.33333 50,500 C 50,609.16667 140.83333,700 250,700 C 286.28682,700 320.42708,689.78445 350,672.375 C 350,699.05957 350,725.16 350,750 C 350,805 314.07407,850 250,850 C 196.60609,850 166.39016,841.83657 151.1875,834.71875 C 134.94189,826.6792 115.61763,828.06046 100.68065,838.32889 C 85.74366,848.59732 77.532968,866.14495 79.220767,884.19227 C 80.908566,902.23958 92.230559,917.9605 108.8125,925.28125 C 142.12738,940.87915 186.72919,950 250,950 C 365.92593,950 450,855 450,750 C 450,670 450,575 450,500 C 450,483.33333 450,466.66667 450,450 C 450,340.83333 359.16667,250 250,250 z M 250,350 C 300.83333,350 350,399.16667 350,450 C 350,466.66667 350,483.33333 350,500 C 350,550.83333 300.83333,600 250,600 C 199.16667,600 150,550.83333 150,500 C 150,483.33333 150,466.66667 150,450 C 150,426.66667 162.59978,400.93717 183.3125,381.125 C 204.02522,361.31283 231.66667,350 250,350 z "
       id="path2162"
       sodipodi:nodetypes="csccscsscsscssccccccsccsc" />
  </g>
</svg>
