<?xml version="1.0" encoding="UTF-8" standalone="no"?>
<!-- Created with Inkscape (http://www.inkscape.org/) -->
<svg
   xmlns:dc="http://purl.org/dc/elements/1.1/"
   xmlns:cc="http://web.resource.org/cc/"
   xmlns:rdf="http://www.w3.org/1999/02/22-rdf-syntax-ns#"
   xmlns:svg="http://www.w3.org/2000/svg"
   xmlns="http://www.w3.org/2000/svg"
   xmlns:sodipodi="http://sodipodi.sourceforge.net/DTD/sodipodi-0.dtd"
   xmlns:inkscape="http://www.inkscape.org/namespaces/inkscape"
   width="1000"
   height="1000"
   id="svg2"
   sodipodi:version="0.32"
   inkscape:version="0.45.1"
   version="1.0"
   sodipodi:docbase="C:\Documents and Settings\spindler.p\Desktop\DIN1451H"
   sodipodi:docname="_C.svg"
   inkscape:output_extension="org.inkscape.output.svg.inkscape">
  <defs
     id="defs4" />
  <sodipodi:namedview
     id="base"
     pagecolor="#ffffff"
     bordercolor="#666666"
     borderopacity="1.0"
     gridtolerance="50.9"
     guidetolerance="10"
     objecttolerance="22.2"
     inkscape:pageopacity="0.0"
     inkscape:pageshadow="2"
     inkscape:zoom="0.5"
     inkscape:cx="617.68491"
     inkscape:cy="469.20959"
     inkscape:document-units="px"
     inkscape:current-layer="layer1"
     width="1000px"
     height="1000px"
     showgrid="true"
     gridspacingx="10px"
     gridspacingy="10px"
     gridempspacing="10"
     inkscape:grid-points="true"
     inkscape:grid-bbox="false"
     inkscape:object-paths="false"
     inkscape:object-points="true"
     inkscape:window-width="963"
     inkscape:window-height="1010"
     inkscape:window-x="390"
     inkscape:window-y="41" />
  <metadata
     id="metadata7">
    <rdf:RDF>
      <cc:Work
         rdf:about="">
        <dc:format>image/svg+xml</dc:format>
        <dc:type
           rdf:resource="http://purl.org/dc/dcmitype/StillImage" />
      </cc:Work>
    </rdf:RDF>
  </metadata>
  <g
     inkscape:label="Layer 1"
     inkscape:groupmode="layer"
     id="layer1">
    <path
       style="fill:none;fill-opacity:1;fill-rule:evenodd;stroke:#000000;stroke-width:1;stroke-linecap:round;stroke-linejoin:round;stroke-miterlimit:4;stroke-opacity:1;stroke-dasharray:none"
       d="M 250,450 C 140.83333,450 50,540.83333 50,650 C 50,730 50,670 50,750 C 50,859.16667 140.83333,950 250,950 C 326.66667,950 375.34375,905.34375 385.34375,895.34375 C 398.59407,882.84675 404.00145,864.13359 399.4591,846.4952 C 394.91676,828.85681 381.14319,815.08324 363.5048,810.5409 C 345.86641,805.99855 327.15325,811.40593 314.65625,824.65625 C 304.65625,834.65625 293.33333,850 250,850 C 199.16667,850 150,800.83333 150,750 C 150,670 150,730 150,650 C 150,599.16667 199.16667,550 250,550 C 293.33333,550 304.65625,565.34375 314.65625,575.34375 C 327.15325,588.59407 345.86641,594.00145 363.5048,589.4591 C 381.14319,584.91676 394.91676,571.14319 399.4591,553.5048 C 404.00145,535.86641 398.59407,517.15325 385.34375,504.65625 C 375.34375,494.65625 326.66667,450 250,450 z "
       id="path3298" />
  </g>
</svg>
