<?xml version="1.0" encoding="UTF-8" standalone="no"?>
<!-- Created with Inkscape (http://www.inkscape.org/) -->
<svg
   xmlns:dc="http://purl.org/dc/elements/1.1/"
   xmlns:cc="http://web.resource.org/cc/"
   xmlns:rdf="http://www.w3.org/1999/02/22-rdf-syntax-ns#"
   xmlns:svg="http://www.w3.org/2000/svg"
   xmlns="http://www.w3.org/2000/svg"
   xmlns:sodipodi="http://sodipodi.sourceforge.net/DTD/sodipodi-0.dtd"
   xmlns:inkscape="http://www.inkscape.org/namespaces/inkscape"
   width="1000"
   height="1000"
   id="svg2"
   sodipodi:version="0.32"
   inkscape:version="0.45.1"
   version="1.0"
   sodipodi:docbase="C:\Documents and Settings\spindler.p\Desktop\DIN1451H"
   sodipodi:docname="_E.svg"
   inkscape:output_extension="org.inkscape.output.svg.inkscape">
  <defs
     id="defs4" />
  <sodipodi:namedview
     id="base"
     pagecolor="#ffffff"
     bordercolor="#666666"
     borderopacity="1.0"
     gridtolerance="50.9"
     guidetolerance="10"
     objecttolerance="22.2"
     inkscape:pageopacity="0.0"
     inkscape:pageshadow="2"
     inkscape:zoom="0.3535534"
     inkscape:cx="-144.50455"
     inkscape:cy="435.98201"
     inkscape:document-units="px"
     inkscape:current-layer="layer1"
     width="1000px"
     height="1000px"
     showgrid="true"
     gridspacingx="10px"
     gridspacingy="10px"
     gridempspacing="10"
     inkscape:grid-points="true"
     inkscape:grid-bbox="false"
     inkscape:object-paths="false"
     inkscape:object-points="true"
     inkscape:window-width="963"
     inkscape:window-height="1010"
     inkscape:window-x="479"
     inkscape:window-y="58" />
  <metadata
     id="metadata7">
    <rdf:RDF>
      <cc:Work
         rdf:about="">
        <dc:format>image/svg+xml</dc:format>
        <dc:type
           rdf:resource="http://purl.org/dc/dcmitype/StillImage" />
      </cc:Work>
    </rdf:RDF>
  </metadata>
  <g
     inkscape:label="Layer 1"
     inkscape:groupmode="layer"
     id="layer1">
    <path
       style="fill:none;fill-opacity:1;fill-rule:evenodd;stroke:#000000;stroke-width:1;stroke-linecap:round;stroke-linejoin:round;stroke-miterlimit:4;stroke-opacity:1;stroke-dasharray:none"
       d="M 250,450 C 140.83333,450 50,540.83333 50,650 C 50,683.4 50,686.77935 50,691.75 C 49.113993,697.13044 49.113993,702.61956 50,708 C 50,712.95264 50,716.4 50,750 C 50,859.16667 140.83333,950 250,950 C 338.33333,950 396.41215,927.70017 422.375,914.71875 C 438.46527,906.79018 449.07618,890.85066 450.18227,872.94716 C 451.28836,855.04365 442.72017,837.91923 427.7282,828.07038 C 412.73623,818.22153 393.61748,817.15723 377.625,825.28125 C 363.58785,832.29983 321.66667,850 250,850 C 199.16667,850 150,800.83333 150,750 C 222.22222,750 383.33333,750 400,750 C 427.61309,749.99724 449.99724,727.61309 450,700 C 450,690 450,659.44543 450,640 C 450,536.66667 359.16667,450 250,450 z M 250,550 C 300.83333,550 350,603.33333 350,640 C 350,643.24091 350,646.28851 350,650 C 292.22222,650 207.77778,650 150,650 C 150,599.16667 199.16667,550 250,550 z "
       id="path3341" />
  </g>
</svg>
