<?xml version="1.0" encoding="UTF-8" standalone="no"?>
<!-- Created with Inkscape (http://www.inkscape.org/) -->
<svg
   xmlns:dc="http://purl.org/dc/elements/1.1/"
   xmlns:cc="http://web.resource.org/cc/"
   xmlns:rdf="http://www.w3.org/1999/02/22-rdf-syntax-ns#"
   xmlns:svg="http://www.w3.org/2000/svg"
   xmlns="http://www.w3.org/2000/svg"
   xmlns:sodipodi="http://sodipodi.sourceforge.net/DTD/sodipodi-0.dtd"
   xmlns:inkscape="http://www.inkscape.org/namespaces/inkscape"
   width="1000"
   height="1000"
   id="svg2"
   sodipodi:version="0.32"
   inkscape:version="0.45.1"
   version="1.0"
   sodipodi:docbase="C:\Documents and Settings\spindler.p\Desktop\DIN1451H"
   sodipodi:docname="_F.svg"
   inkscape:output_extension="org.inkscape.output.svg.inkscape">
  <defs
     id="defs4" />
  <sodipodi:namedview
     id="base"
     pagecolor="#ffffff"
     bordercolor="#666666"
     borderopacity="1.0"
     gridtolerance="50.9"
     guidetolerance="10"
     objecttolerance="22.2"
     inkscape:pageopacity="0.0"
     inkscape:pageshadow="2"
     inkscape:zoom="0.70710678"
     inkscape:cx="434.37614"
     inkscape:cy="369.87267"
     inkscape:document-units="px"
     inkscape:current-layer="layer1"
     width="1000px"
     height="1000px"
     showgrid="true"
     gridspacingx="10px"
     gridspacingy="10px"
     gridempspacing="10"
     inkscape:grid-points="true"
     inkscape:grid-bbox="false"
     inkscape:object-paths="false"
     inkscape:object-points="true"
     inkscape:window-width="963"
     inkscape:window-height="1010"
     inkscape:window-x="479"
     inkscape:window-y="58" />
  <metadata
     id="metadata7">
    <rdf:RDF>
      <cc:Work
         rdf:about="">
        <dc:format>image/svg+xml</dc:format>
        <dc:type
           rdf:resource="http://purl.org/dc/dcmitype/StillImage" />
      </cc:Work>
    </rdf:RDF>
  </metadata>
  <g
     inkscape:label="Layer 1"
     inkscape:groupmode="layer"
     id="layer1">
    <path
       style="fill:none;fill-opacity:1;fill-rule:evenodd;stroke:#000000;stroke-width:1;stroke-linecap:round;stroke-linejoin:round;stroke-miterlimit:4;stroke-opacity:1;stroke-dasharray:none"
       d="M 300,250 C 258.33333,250 222.51299,269.29951 195.90625,295.90625 C 169.29951,322.51299 150,358.33333 150,400 L 150,450 C 131.9682,449.74499 115.19593,459.21876 106.10561,474.79364 C 97.015296,490.36852 97.015296,509.63148 106.10561,525.20636 C 115.19593,540.78124 131.9682,550.25501 150,550 L 150,900 C 149.74499,918.0318 159.21876,934.80407 174.79364,943.89439 C 190.36852,952.9847 209.63148,952.9847 225.20636,943.89439 C 240.78124,934.80407 250.25501,918.0318 250,900 L 250,550 L 300,550 C 318.0318,550.25501 334.80407,540.78124 343.89439,525.20636 C 352.9847,509.63148 352.9847,490.36852 343.89439,474.79364 C 334.80407,459.21876 318.0318,449.74499 300,450 L 250,450 L 250,400 C 250,391.66667 255.70049,377.48701 266.59375,366.59375 C 277.48701,355.70049 291.66667,350 300,350 C 318.0318,350.25501 334.80407,340.78124 343.89439,325.20636 C 352.9847,309.63148 352.9847,290.36852 343.89439,274.79364 C 334.80407,259.21876 318.0318,249.74499 300,250 z "
       id="path3417" />
  </g>
</svg>
