<?xml version="1.0" encoding="UTF-8" standalone="no"?>
<!-- Created with Inkscape (http://www.inkscape.org/) -->
<svg
   xmlns:dc="http://purl.org/dc/elements/1.1/"
   xmlns:cc="http://web.resource.org/cc/"
   xmlns:rdf="http://www.w3.org/1999/02/22-rdf-syntax-ns#"
   xmlns:svg="http://www.w3.org/2000/svg"
   xmlns="http://www.w3.org/2000/svg"
   xmlns:sodipodi="http://sodipodi.sourceforge.net/DTD/sodipodi-0.dtd"
   xmlns:inkscape="http://www.inkscape.org/namespaces/inkscape"
   width="1000"
   height="1000"
   id="svg2"
   sodipodi:version="0.32"
   inkscape:version="0.45.1"
   version="1.0"
   sodipodi:docbase="C:\Documents and Settings\spindler.p\Desktop\DIN1451H"
   sodipodi:docname="_H.svg"
   inkscape:output_extension="org.inkscape.output.svg.inkscape">
  <defs
     id="defs4" />
  <sodipodi:namedview
     id="base"
     pagecolor="#ffffff"
     bordercolor="#666666"
     borderopacity="1.0"
     gridtolerance="50.9"
     guidetolerance="10"
     objecttolerance="22.2"
     inkscape:pageopacity="0.0"
     inkscape:pageshadow="2"
     inkscape:zoom="0.70710678"
     inkscape:cx="426.38631"
     inkscape:cy="522.7231"
     inkscape:document-units="px"
     inkscape:current-layer="layer1"
     width="1000px"
     height="1000px"
     showgrid="true"
     gridspacingx="10px"
     gridspacingy="10px"
     gridempspacing="10"
     inkscape:grid-points="true"
     inkscape:grid-bbox="false"
     inkscape:object-paths="false"
     inkscape:object-points="true"
     inkscape:window-width="963"
     inkscape:window-height="1010"
     inkscape:window-x="479"
     inkscape:window-y="58" />
  <metadata
     id="metadata7">
    <rdf:RDF>
      <cc:Work
         rdf:about="">
        <dc:format>image/svg+xml</dc:format>
        <dc:type
           rdf:resource="http://purl.org/dc/dcmitype/StillImage" />
      </cc:Work>
    </rdf:RDF>
  </metadata>
  <g
     inkscape:label="Layer 1"
     inkscape:groupmode="layer"
     id="layer1">
    <path
       style="fill:none;fill-opacity:1;fill-rule:evenodd;stroke:#000000;stroke-width:1;stroke-linecap:round;stroke-linejoin:round;stroke-miterlimit:4;stroke-opacity:1;stroke-dasharray:none"
       d="M 99.25,249.28125 C 71.647998,249.69519 49.602873,272.39775 50,300 L 50,650 L 50,900 C 49.744986,918.0318 59.218765,934.80407 74.793642,943.89439 C 90.36852,952.9847 109.63148,952.9847 125.20636,943.89439 C 140.78124,934.80407 150.25501,918.0318 150,900 L 150,650 C 150,599.16667 199.16667,550 250,550 C 300.83333,550 350,599.16667 350,650 C 350,730 350,900 350,900 C 349.74499,918.0318 359.21876,934.80407 374.79364,943.89439 C 390.36852,952.9847 409.63148,952.9847 425.20636,943.89439 C 440.78124,934.80407 450.25501,918.0318 450,900 C 450,900 450,730 450,650 C 450,540.83333 359.16667,450 250,450 C 213.71318,450 179.57292,460.21555 150,477.625 L 150,300 C 150.19446,286.48444 144.90904,273.46585 135.34816,263.91086 C 125.78728,254.35587 112.76544,249.07847 99.25,249.28125 z "
       id="path3495" />
  </g>
</svg>
