<?xml version="1.0" encoding="UTF-8" standalone="no"?>
<!-- Created with Inkscape (http://www.inkscape.org/) -->
<svg
   xmlns:dc="http://purl.org/dc/elements/1.1/"
   xmlns:cc="http://web.resource.org/cc/"
   xmlns:rdf="http://www.w3.org/1999/02/22-rdf-syntax-ns#"
   xmlns:svg="http://www.w3.org/2000/svg"
   xmlns="http://www.w3.org/2000/svg"
   xmlns:sodipodi="http://sodipodi.sourceforge.net/DTD/sodipodi-0.dtd"
   xmlns:inkscape="http://www.inkscape.org/namespaces/inkscape"
   width="1000"
   height="1000"
   id="svg2"
   sodipodi:version="0.32"
   inkscape:version="0.45.1"
   version="1.0"
   sodipodi:docbase="G:\DIN1451H"
   sodipodi:docname="_K.svg"
   inkscape:output_extension="org.inkscape.output.svg.inkscape">
  <defs
     id="defs4" />
  <sodipodi:namedview
     id="base"
     pagecolor="#ffffff"
     bordercolor="#666666"
     borderopacity="1.0"
     gridtolerance="50.9"
     guidetolerance="10"
     objecttolerance="22.2"
     inkscape:pageopacity="0.0"
     inkscape:pageshadow="2"
     inkscape:zoom="0.70710678"
     inkscape:cx="263.81949"
     inkscape:cy="292.69662"
     inkscape:document-units="px"
     inkscape:current-layer="layer1"
     width="1000px"
     height="1000px"
     showgrid="true"
     gridspacingx="10px"
     gridspacingy="10px"
     gridempspacing="10"
     inkscape:grid-points="true"
     inkscape:grid-bbox="false"
     inkscape:object-paths="false"
     inkscape:object-points="true"
     inkscape:window-width="963"
     inkscape:window-height="1010"
     inkscape:window-x="453"
     inkscape:window-y="98" />
  <metadata
     id="metadata7">
    <rdf:RDF>
      <cc:Work
         rdf:about="">
        <dc:format>image/svg+xml</dc:format>
        <dc:type
           rdf:resource="http://purl.org/dc/dcmitype/StillImage" />
      </cc:Work>
    </rdf:RDF>
  </metadata>
  <g
     inkscape:label="Layer 1"
     inkscape:groupmode="layer"
     id="layer1">
    <path
       style="fill:none;fill-opacity:1;fill-rule:evenodd;stroke:#000000;stroke-width:1;stroke-linecap:round;stroke-linejoin:round;stroke-miterlimit:4;stroke-opacity:1;stroke-dasharray:none"
       d="M 99.25,249.28125 C 71.647998,249.69519 49.602873,272.39775 50,300 L 50,900 C 49.744986,918.0318 59.218765,934.80407 74.793642,943.89439 C 90.36852,952.9847 109.63148,952.9847 125.20636,943.89439 C 140.78124,934.80407 150.25501,918.0318 150,900 L 150,839.75 L 226.90625,757.75 L 360.4375,930.5625 C 371.19905,945.15412 389.01587,952.77751 407.00129,950.48603 C 424.98672,948.19456 440.32282,936.34723 447.0818,919.52337 C 453.84078,902.6995 450.96365,883.53502 439.5625,869.4375 L 296.15625,683.84375 L 436.46875,534.1875 C 449.24856,521.25718 454.00375,502.4095 448.8876,484.9641 C 443.77145,467.51871 429.59012,454.22447 411.85104,450.24431 C 394.11196,446.26415 375.61027,452.22523 363.53125,465.8125 L 150,693.59375 L 150,300 C 149.46819,270.51505 127.65134,251.1437 99.25,249.28125 z "
       id="path3612"
       sodipodi:nodetypes="cccssccccsscccsscccc" />
  </g>
</svg>
