<?xml version="1.0" encoding="UTF-8" standalone="no"?>
<!-- Created with Inkscape (http://www.inkscape.org/) -->
<svg
   xmlns:dc="http://purl.org/dc/elements/1.1/"
   xmlns:cc="http://web.resource.org/cc/"
   xmlns:rdf="http://www.w3.org/1999/02/22-rdf-syntax-ns#"
   xmlns:svg="http://www.w3.org/2000/svg"
   xmlns="http://www.w3.org/2000/svg"
   xmlns:sodipodi="http://sodipodi.sourceforge.net/DTD/sodipodi-0.dtd"
   xmlns:inkscape="http://www.inkscape.org/namespaces/inkscape"
   width="1000"
   height="1000"
   id="svg2"
   sodipodi:version="0.32"
   inkscape:version="0.45.1"
   version="1.0"
   sodipodi:docbase="C:\Documents and Settings\spindler.p\Desktop\DIN1451H"
   sodipodi:docname="_O.svg"
   inkscape:output_extension="org.inkscape.output.svg.inkscape">
  <defs
     id="defs4" />
  <sodipodi:namedview
     id="base"
     pagecolor="#ffffff"
     bordercolor="#666666"
     borderopacity="1.0"
     gridtolerance="50.9"
     guidetolerance="10"
     objecttolerance="22.2"
     inkscape:pageopacity="0.0"
     inkscape:pageshadow="2"
     inkscape:zoom="1"
     inkscape:cx="285.78517"
     inkscape:cy="277.42029"
     inkscape:document-units="px"
     inkscape:current-layer="layer1"
     width="1000px"
     height="1000px"
     showgrid="true"
     gridspacingx="10px"
     gridspacingy="10px"
     gridempspacing="10"
     inkscape:grid-points="true"
     inkscape:grid-bbox="false"
     inkscape:object-paths="false"
     inkscape:object-points="true"
     inkscape:window-width="963"
     inkscape:window-height="1010"
     inkscape:window-x="479"
     inkscape:window-y="58" />
  <metadata
     id="metadata7">
    <rdf:RDF>
      <cc:Work
         rdf:about="">
        <dc:format>image/svg+xml</dc:format>
        <dc:type
           rdf:resource="http://purl.org/dc/dcmitype/StillImage" />
      </cc:Work>
    </rdf:RDF>
  </metadata>
  <g
     inkscape:label="Layer 1"
     inkscape:groupmode="layer"
     id="layer1">
    <path
       style="fill:none;fill-opacity:1;fill-rule:evenodd;stroke:#000000;stroke-width:1;stroke-linecap:butt;stroke-linejoin:miter;stroke-miterlimit:4;stroke-dasharray:none;stroke-opacity:1"
       d="M 250,450 C 140.83333,450 50,540.83333 50,650 C 50,730 50,670 50,750 C 50,859.16667 140.83333,950 250,950 C 359.16667,950 450,859.16667 450,750 C 450,670 450,730 450,650 C 450,540.83333 359.16667,450 250,450 z M 250,550 C 300.83333,550 350,599.16667 350,650 C 350,730 350,670 350,750 C 350,800.83333 300.83333,850 250,850 C 199.16667,850 150,800.83333 150,750 C 150,670 150,730 150,650 C 150,599.16667 199.16667,550 250,550 z "
       id="path3769" />
  </g>
</svg>
