<?xml version="1.0" encoding="UTF-8" standalone="no"?>
<!-- Created with Inkscape (http://www.inkscape.org/) -->
<svg
   xmlns:dc="http://purl.org/dc/elements/1.1/"
   xmlns:cc="http://web.resource.org/cc/"
   xmlns:rdf="http://www.w3.org/1999/02/22-rdf-syntax-ns#"
   xmlns:svg="http://www.w3.org/2000/svg"
   xmlns="http://www.w3.org/2000/svg"
   xmlns:sodipodi="http://sodipodi.sourceforge.net/DTD/sodipodi-0.dtd"
   xmlns:inkscape="http://www.inkscape.org/namespaces/inkscape"
   width="1000"
   height="1000"
   id="svg2"
   sodipodi:version="0.32"
   inkscape:version="0.45.1"
   version="1.0"
   sodipodi:docbase="C:\Documents and Settings\spindler.p\Desktop\DIN1451H"
   sodipodi:docname="_T.svg"
   inkscape:output_extension="org.inkscape.output.svg.inkscape">
  <defs
     id="defs4" />
  <sodipodi:namedview
     id="base"
     pagecolor="#ffffff"
     bordercolor="#666666"
     borderopacity="1.0"
     gridtolerance="50.9"
     guidetolerance="10"
     objecttolerance="22.2"
     inkscape:pageopacity="0.0"
     inkscape:pageshadow="2"
     inkscape:zoom="0.5"
     inkscape:cx="478.02769"
     inkscape:cy="355.02008"
     inkscape:document-units="px"
     inkscape:current-layer="layer1"
     width="1000px"
     height="1000px"
     showgrid="true"
     gridspacingx="10px"
     gridspacingy="10px"
     gridempspacing="10"
     inkscape:grid-points="true"
     inkscape:grid-bbox="false"
     inkscape:object-paths="false"
     inkscape:object-points="true"
     inkscape:window-width="963"
     inkscape:window-height="1010"
     inkscape:window-x="479"
     inkscape:window-y="58" />
  <metadata
     id="metadata7">
    <rdf:RDF>
      <cc:Work
         rdf:about="">
        <dc:format>image/svg+xml</dc:format>
        <dc:type
           rdf:resource="http://purl.org/dc/dcmitype/StillImage" />
      </cc:Work>
    </rdf:RDF>
  </metadata>
  <g
     inkscape:label="Layer 1"
     inkscape:groupmode="layer"
     id="layer1">
    <path
       style="fill:none;fill-opacity:1;fill-rule:evenodd;stroke:#000000;stroke-width:1;stroke-linecap:round;stroke-linejoin:round;stroke-miterlimit:4;stroke-opacity:1;stroke-dasharray:none"
       d="M 149.25,249.28125 C 121.648,249.69519 99.602873,272.39775 100,300 L 100,450 C 81.968204,449.74499 65.195932,459.21876 56.105614,474.79364 C 47.015296,490.36852 47.015296,509.63148 56.105614,525.20636 C 65.195932,540.78124 81.968204,550.25501 100,550 L 100,800 C 100,887.77778 173.33333,950 250,950 C 268.0318,950.25501 284.80407,940.78124 293.89439,925.20636 C 302.9847,909.63148 302.9847,890.36852 293.89439,874.79364 C 284.80407,859.21876 268.0318,849.74499 250,850 C 226.66667,850 200,832.22222 200,800 L 200,550 L 250,550 C 268.0318,550.25501 284.80407,540.78124 293.89439,525.20636 C 302.9847,509.63148 302.9847,490.36852 293.89439,474.79364 C 284.80407,459.21876 268.0318,449.74499 250,450 L 200,450 L 200,300 C 200.19446,286.48444 194.90904,273.46585 185.34816,263.91086 C 175.78728,254.35587 162.76544,249.07847 149.25,249.28125 z "
       id="path3306" />
  </g>
</svg>
