<?xml version="1.0" encoding="UTF-8" standalone="no"?>
<!-- Created with Inkscape (http://www.inkscape.org/) -->
<svg
   xmlns:dc="http://purl.org/dc/elements/1.1/"
   xmlns:cc="http://web.resource.org/cc/"
   xmlns:rdf="http://www.w3.org/1999/02/22-rdf-syntax-ns#"
   xmlns:svg="http://www.w3.org/2000/svg"
   xmlns="http://www.w3.org/2000/svg"
   xmlns:sodipodi="http://sodipodi.sourceforge.net/DTD/sodipodi-0.dtd"
   xmlns:inkscape="http://www.inkscape.org/namespaces/inkscape"
   width="1000"
   height="1000"
   id="svg2"
   sodipodi:version="0.32"
   inkscape:version="0.45.1"
   version="1.0"
   sodipodi:docbase="C:\Documents and Settings\spindler.p\Desktop\DIN1451H"
   sodipodi:docname="B.svg"
   inkscape:output_extension="org.inkscape.output.svg.inkscape">
  <defs
     id="defs4" />
  <sodipodi:namedview
     id="base"
     pagecolor="#ffffff"
     bordercolor="#666666"
     borderopacity="1.0"
     gridtolerance="50.9"
     guidetolerance="10"
     objecttolerance="22.2"
     inkscape:pageopacity="0.0"
     inkscape:pageshadow="2"
     inkscape:zoom="0.5"
     inkscape:cx="488.71795"
     inkscape:cy="174.34786"
     inkscape:document-units="px"
     inkscape:current-layer="layer1"
     width="1000px"
     height="1000px"
     showgrid="true"
     gridspacingx="10px"
     gridspacingy="10px"
     gridempspacing="10"
     inkscape:grid-points="true"
     inkscape:grid-bbox="false"
     inkscape:object-paths="false"
     inkscape:object-points="true"
     inkscape:window-width="963"
     inkscape:window-height="1010"
     inkscape:window-x="479"
     inkscape:window-y="58" />
  <metadata
     id="metadata7">
    <rdf:RDF>
      <cc:Work
         rdf:about="">
        <dc:format>image/svg+xml</dc:format>
        <dc:type
           rdf:resource="http://purl.org/dc/dcmitype/StillImage" />
      </cc:Work>
    </rdf:RDF>
  </metadata>
  <g
     inkscape:label="Layer 1"
     inkscape:groupmode="layer"
     id="layer1">
    <g
       id="g2167"
       style="stroke:#000000;stroke-opacity:1;fill:none;stroke-width:100;stroke-miterlimit:4;stroke-dasharray:none;stroke-linejoin:round;stroke-linecap:round;fill-opacity:1">
      <path
         style="fill:none;fill-rule:evenodd;stroke:#000000;stroke-opacity:1;stroke-width:1;stroke-miterlimit:4;stroke-dasharray:none"
         d="M 100 250 C 72.386906 250.00276 50.002761 272.38691 50 300 L 50 571.6875 C 49.070874 577.19614 49.070874 582.80386 50 588.3125 L 50 900 C 50.002761 927.61309 72.386906 949.99724 100 950 L 338.3125 950 L 340 950 C 340.8244 950.01166 341.65023 949.99742 342.46875 949.96875 C 457.25426 948.6395 550 855.09877 550 740 C 550 673.64648 519.09739 614.55474 471 576.0625 C 504.85493 544.14981 530 496.56425 530 440 C 530 380.18519 502.00224 330.2008 465.1875 298.40625 C 429.31409 267.42467 386.16606 250.88937 343.375 250.0625 C 343.19926 250.05318 343.01981 250.03873 342.84375 250.03125 C 341.90222 249.99126 340.94945 249.98657 340 250 L 338.3125 250 L 100 250 z M 150 350 L 338.3125 350 L 340 350 C 356.11111 350 381.62724 358.3883 399.8125 374.09375 C 417.99776 389.7992 430 409.81481 430 440 C 430 470.18519 417.99776 490.2008 399.8125 505.90625 C 381.62724 521.6117 356.11111 530 340 530 L 150 530 L 150 350 z M 150 630 L 340 630 C 404.07407 630 450 675.92593 450 740 C 450 804.07407 404.07407 850 340 850 L 338.3125 850 L 150 850 L 150 630 z "
         id="path3152" />
    </g>
  </g>
</svg>
