<?xml version="1.0" encoding="UTF-8" standalone="no"?>
<!-- Created with Inkscape (http://www.inkscape.org/) -->
<svg
   xmlns:dc="http://purl.org/dc/elements/1.1/"
   xmlns:cc="http://web.resource.org/cc/"
   xmlns:rdf="http://www.w3.org/1999/02/22-rdf-syntax-ns#"
   xmlns:svg="http://www.w3.org/2000/svg"
   xmlns="http://www.w3.org/2000/svg"
   xmlns:sodipodi="http://sodipodi.sourceforge.net/DTD/sodipodi-0.dtd"
   xmlns:inkscape="http://www.inkscape.org/namespaces/inkscape"
   width="1000"
   height="1000"
   id="svg2"
   sodipodi:version="0.32"
   inkscape:version="0.45.1"
   version="1.0"
   sodipodi:docbase="G:\DIN1451H"
   sodipodi:docname="exclamation.svg"
   inkscape:output_extension="org.inkscape.output.svg.inkscape">
  <defs
     id="defs4" />
  <sodipodi:namedview
     id="base"
     pagecolor="#ffffff"
     bordercolor="#666666"
     borderopacity="1.0"
     gridtolerance="50.9"
     guidetolerance="10"
     objecttolerance="22.2"
     inkscape:pageopacity="0.0"
     inkscape:pageshadow="2"
     inkscape:zoom="1"
     inkscape:cx="335.35934"
     inkscape:cy="378.03876"
     inkscape:document-units="px"
     inkscape:current-layer="layer3"
     width="1000px"
     height="1000px"
     showgrid="true"
     gridspacingx="10px"
     gridspacingy="10px"
     gridempspacing="10"
     inkscape:grid-points="true"
     inkscape:grid-bbox="false"
     inkscape:object-paths="false"
     inkscape:object-points="true"
     inkscape:window-width="1103"
     inkscape:window-height="1121"
     inkscape:window-x="159"
     inkscape:window-y="8" />
  <metadata
     id="metadata7">
    <rdf:RDF>
      <cc:Work
         rdf:about="">
        <dc:format>image/svg+xml</dc:format>
        <dc:type
           rdf:resource="http://purl.org/dc/dcmitype/StillImage" />
      </cc:Work>
    </rdf:RDF>
  </metadata>
  <g
     inkscape:groupmode="layer"
     id="layer3"
     style="display:inline">
    <path
       id="path2158"
       style="fill:none;fill-opacity:1;fill-rule:evenodd;stroke:#000000;stroke-width:1;stroke-linecap:round;stroke-linejoin:miter;stroke-miterlimit:4;stroke-opacity:1"
       d="M 99.25,249.28125 C 71.647998,249.69519 49.602873,272.39775 50,300 L 50,700 C 49.744986,718.0318 59.218765,734.80407 74.793642,743.89439 C 90.36852,752.9847 109.63148,752.9847 125.20636,743.89439 C 140.78124,734.80407 150.25501,718.0318 150,700 L 150,300 C 150.19446,286.48444 144.90904,273.46585 135.34816,263.91086 C 125.78728,254.35587 112.76544,249.07847 99.25,249.28125 z M 50,900 C 50,870 70,850 100,850 C 130,850 150,870 150,900 C 150,930 130,950 100,950 C 70,950 50,930 50,900 z " />
  </g>
</svg>
