<?xml version="1.0" encoding="UTF-8" standalone="no"?>
<!-- Created with Inkscape (http://www.inkscape.org/) -->
<svg
   xmlns:dc="http://purl.org/dc/elements/1.1/"
   xmlns:cc="http://web.resource.org/cc/"
   xmlns:rdf="http://www.w3.org/1999/02/22-rdf-syntax-ns#"
   xmlns:svg="http://www.w3.org/2000/svg"
   xmlns="http://www.w3.org/2000/svg"
   xmlns:sodipodi="http://sodipodi.sourceforge.net/DTD/sodipodi-0.dtd"
   xmlns:inkscape="http://www.inkscape.org/namespaces/inkscape"
   width="1000"
   height="1000"
   id="svg2"
   sodipodi:version="0.32"
   inkscape:version="0.45.1"
   version="1.0"
   sodipodi:docbase="C:\Documents and Settings\spindler.p\Desktop\DIN1451H"
   sodipodi:docname="K.svg"
   inkscape:output_extension="org.inkscape.output.svg.inkscape">
  <defs
     id="defs4" />
  <sodipodi:namedview
     id="base"
     pagecolor="#ffffff"
     bordercolor="#666666"
     borderopacity="1.0"
     gridtolerance="50.9"
     guidetolerance="10"
     objecttolerance="22.2"
     inkscape:pageopacity="0.0"
     inkscape:pageshadow="2"
     inkscape:zoom="1"
     inkscape:cx="357.2979"
     inkscape:cy="499.57707"
     inkscape:document-units="px"
     inkscape:current-layer="layer1"
     width="1000px"
     height="1000px"
     showgrid="true"
     gridspacingx="10px"
     gridspacingy="10px"
     gridempspacing="10"
     inkscape:grid-points="true"
     inkscape:grid-bbox="false"
     inkscape:object-paths="false"
     inkscape:object-points="true"
     inkscape:window-width="963"
     inkscape:window-height="1010"
     inkscape:window-x="479"
     inkscape:window-y="58" />
  <metadata
     id="metadata7">
    <rdf:RDF>
      <cc:Work
         rdf:about="">
        <dc:format>image/svg+xml</dc:format>
        <dc:type
           rdf:resource="http://purl.org/dc/dcmitype/StillImage" />
      </cc:Work>
    </rdf:RDF>
  </metadata>
  <g
     inkscape:label="Layer 1"
     inkscape:groupmode="layer"
     id="layer1">
    <path
       style="fill:none;fill-opacity:1;fill-rule:evenodd;stroke:#000000;stroke-width:1;stroke-linecap:round;stroke-linejoin:round;stroke-miterlimit:4;stroke-opacity:1;stroke-dasharray:none"
       d="M 99.25,249.28125 C 71.647998,249.69519 49.602873,272.39775 50,300 L 50,900 C 49.744986,918.0318 59.218765,934.80407 74.793642,943.89439 C 90.36852,952.9847 109.63148,952.9847 125.20636,943.89439 C 140.78124,934.80407 150.25501,918.0318 150,900 L 150,720.6875 L 252.21875,618.46875 L 458.40625,927.75 C 468.2148,942.86105 485.39344,951.52795 503.37574,950.43783 C 521.35804,949.34771 537.36392,938.66911 545.27523,922.48384 C 553.18655,906.29858 551.7802,887.10893 541.59375,872.25 L 324.34375,546.34375 L 535.34375,335.34375 C 548.59407,322.84675 554.00145,304.13359 549.4591,286.4952 C 544.91676,268.85681 531.14319,255.08324 513.5048,250.5409 C 495.86641,245.99855 477.15325,251.40593 464.65625,264.65625 L 150,579.3125 L 150,300 C 149.46819,270.51505 127.65134,251.1437 99.25,249.28125 z "
       id="path3511"
       sodipodi:nodetypes="cccssccccsscccsscccc" />
  </g>
</svg>
