<?xml version="1.0" encoding="UTF-8" standalone="no"?>
<!-- Created with Inkscape (http://www.inkscape.org/) -->
<svg
   xmlns:dc="http://purl.org/dc/elements/1.1/"
   xmlns:cc="http://web.resource.org/cc/"
   xmlns:rdf="http://www.w3.org/1999/02/22-rdf-syntax-ns#"
   xmlns:svg="http://www.w3.org/2000/svg"
   xmlns="http://www.w3.org/2000/svg"
   xmlns:sodipodi="http://sodipodi.sourceforge.net/DTD/sodipodi-0.dtd"
   xmlns:inkscape="http://www.inkscape.org/namespaces/inkscape"
   width="1000"
   height="1000"
   id="svg2"
   sodipodi:version="0.32"
   inkscape:version="0.45.1"
   version="1.0"
   sodipodi:docbase="C:\Documents and Settings\spindler.p\Desktop\DIN1451H"
   sodipodi:docname="M.svg"
   inkscape:output_extension="org.inkscape.output.svg.inkscape">
  <defs
     id="defs4" />
  <sodipodi:namedview
     id="base"
     pagecolor="#ffffff"
     bordercolor="#666666"
     borderopacity="1.0"
     gridtolerance="50.9"
     guidetolerance="10"
     objecttolerance="22.2"
     inkscape:pageopacity="0.0"
     inkscape:pageshadow="2"
     inkscape:zoom="0.35355339"
     inkscape:cx="673.57665"
     inkscape:cy="244.36871"
     inkscape:document-units="px"
     inkscape:current-layer="layer1"
     width="1000px"
     height="1000px"
     showgrid="true"
     gridspacingx="10px"
     gridspacingy="10px"
     gridempspacing="10"
     inkscape:grid-points="true"
     inkscape:grid-bbox="false"
     inkscape:object-paths="false"
     inkscape:object-points="true"
     inkscape:window-width="963"
     inkscape:window-height="1010"
     inkscape:window-x="479"
     inkscape:window-y="58" />
  <metadata
     id="metadata7">
    <rdf:RDF>
      <cc:Work
         rdf:about="">
        <dc:format>image/svg+xml</dc:format>
        <dc:type
           rdf:resource="http://purl.org/dc/dcmitype/StillImage" />
      </cc:Work>
    </rdf:RDF>
  </metadata>
  <g
     inkscape:label="Layer 1"
     inkscape:groupmode="layer"
     id="layer1">
    <path
       style="fill:none;fill-opacity:1;fill-rule:evenodd;stroke:#000000;stroke-width:1;stroke-linecap:round;stroke-linejoin:round;stroke-miterlimit:4;stroke-dasharray:none;stroke-opacity:1"
       d="M 100.34375,250.03125 C 87.029284,249.94105 74.228637,255.16459 64.778542,264.54429 C 55.328447,273.924 50.009347,286.68523 50,300 L 50,900 C 49.744986,918.0318 59.218765,934.80407 74.793642,943.89439 C 90.36852,952.9847 109.63148,952.9847 125.20636,943.89439 C 140.78124,934.80407 150.25501,918.0318 150,900 L 150,511.8125 L 305.28125,822.375 C 313.75451,839.30811 331.06521,850.00293 350,850.00293 C 368.93479,850.00293 386.24549,839.30811 394.71875,822.375 L 550,511.8125 L 550,900 C 549.74499,918.0318 559.21876,934.80407 574.79364,943.89439 C 590.36852,952.9847 609.63148,952.9847 625.20636,943.89439 C 640.78124,934.80407 650.25501,918.0318 650,900 L 650,300 C 649.99441,276.8161 634.05397,256.6764 611.49107,251.34646 C 588.92816,246.01652 565.6606,256.89429 555.28125,277.625 L 350,688.1875 L 144.71875,277.625 C 136.29172,260.81538 119.14702,250.15428 100.34375,250.03125 L 100.34375,250.03125 z "
       id="path3589" />
  </g>
</svg>
