<?xml version="1.0" encoding="UTF-8" standalone="no"?>
<!-- Created with Inkscape (http://www.inkscape.org/) -->
<svg
   xmlns:dc="http://purl.org/dc/elements/1.1/"
   xmlns:cc="http://web.resource.org/cc/"
   xmlns:rdf="http://www.w3.org/1999/02/22-rdf-syntax-ns#"
   xmlns:svg="http://www.w3.org/2000/svg"
   xmlns="http://www.w3.org/2000/svg"
   xmlns:sodipodi="http://sodipodi.sourceforge.net/DTD/sodipodi-0.dtd"
   xmlns:inkscape="http://www.inkscape.org/namespaces/inkscape"
   width="1000"
   height="1000"
   id="svg2"
   sodipodi:version="0.32"
   inkscape:version="0.45.1"
   version="1.0"
   sodipodi:docbase="G:\DIN1451H"
   sodipodi:docname="percent.svg"
   inkscape:output_extension="org.inkscape.output.svg.inkscape">
  <defs
     id="defs4" />
  <sodipodi:namedview
     id="base"
     pagecolor="#ffffff"
     bordercolor="#666666"
     borderopacity="1.0"
     gridtolerance="50.9"
     guidetolerance="10"
     objecttolerance="22.2"
     inkscape:pageopacity="0.0"
     inkscape:pageshadow="2"
     inkscape:zoom="0.70710678"
     inkscape:cx="491.0121"
     inkscape:cy="315.42126"
     inkscape:document-units="px"
     inkscape:current-layer="layer3"
     width="1000px"
     height="1000px"
     showgrid="true"
     gridspacingx="10px"
     gridspacingy="10px"
     gridempspacing="10"
     inkscape:grid-points="true"
     inkscape:grid-bbox="false"
     inkscape:object-paths="false"
     inkscape:object-points="true"
     inkscape:window-width="1103"
     inkscape:window-height="1121"
     inkscape:window-x="159"
     inkscape:window-y="8" />
  <metadata
     id="metadata7">
    <rdf:RDF>
      <cc:Work
         rdf:about="">
        <dc:format>image/svg+xml</dc:format>
        <dc:type
           rdf:resource="http://purl.org/dc/dcmitype/StillImage" />
      </cc:Work>
    </rdf:RDF>
  </metadata>
  <g
     inkscape:groupmode="layer"
     id="layer3"
     style="display:inline">
    <path
       style="fill:none;fill-opacity:1;fill-rule:evenodd;stroke:#000000;stroke-width:1;stroke-linecap:round;stroke-linejoin:miter;stroke-miterlimit:4;stroke-dasharray:none;stroke-opacity:1"
       d="M 599.03125,249.4375 C 582.55787,249.88303 567.36165,258.41629 558.40625,272.25 L 158.40625,872.25 C 148.2198,887.10893 146.81345,906.29858 154.72477,922.48384 C 162.63608,938.66911 178.64196,949.34771 196.62426,950.43783 C 214.60656,951.52795 231.7852,942.86105 241.59375,927.75 L 641.59375,327.75 C 652.25028,312.24682 653.30391,292.07453 644.32047,275.54553 C 635.33703,259.01652 617.83685,248.92814 599.03125,249.4375 L 599.03125,249.4375 z M 200,250 C 158.33333,250 122.51299,269.29951 95.90625,295.90625 C 69.299508,322.51299 50,358.33333 50,400 C 50,450 50,400 50,450 C 50,491.66667 69.299508,527.48701 95.90625,554.09375 C 122.51299,580.70049 158.33333,600 200,600 C 241.66667,600 277.48701,580.70049 304.09375,554.09375 C 330.70049,527.48701 350,491.66667 350,450 C 350,400 350,450 350,400 C 350,358.33333 330.70049,322.51299 304.09375,295.90625 C 277.48701,269.29951 241.66667,250 200,250 z M 200,350 C 230,350 250,370 250,400 C 250,450 250,400 250,450 C 250,480 230,500 200,500 C 170,500 150,480 150,450 C 150,400 150,450 150,400 C 150,370 170,350 200,350 z M 650,600 C 608.33333,600 572.51299,619.29951 545.90625,645.90625 C 519.29951,672.51299 500,708.33333 500,750 C 500,800 500,750 500,800 C 500,841.66667 519.29951,877.48701 545.90625,904.09375 C 572.51299,930.70049 608.33333,950 650,950 C 691.66667,950 727.48701,930.70049 754.09375,904.09375 C 780.70049,877.48701 800,841.66667 800,800 C 800,750 800,800 800,750 C 800,708.33333 780.70049,672.51299 754.09375,645.90625 C 727.48701,619.29951 691.66667,600 650,600 z M 650,700 C 680,700 700,720 700,750 C 700,769.39934 700,781.88696 700,800 C 700,830 680,850 650,850 C 620,850 600,830 600,800 C 600,750 600,800 600,750 C 600,720 620,700 650,700 z "
       id="path2158"
       sodipodi:nodetypes="cccssccscccssssssssscccccccccsssssssssccsccccc" />
  </g>
</svg>
