<?xml version="1.0" encoding="UTF-8" standalone="no"?>
<!-- Created with Inkscape (http://www.inkscape.org/) -->
<svg
   xmlns:dc="http://purl.org/dc/elements/1.1/"
   xmlns:cc="http://web.resource.org/cc/"
   xmlns:rdf="http://www.w3.org/1999/02/22-rdf-syntax-ns#"
   xmlns:svg="http://www.w3.org/2000/svg"
   xmlns="http://www.w3.org/2000/svg"
   xmlns:sodipodi="http://sodipodi.sourceforge.net/DTD/sodipodi-0.dtd"
   xmlns:inkscape="http://www.inkscape.org/namespaces/inkscape"
   width="1000"
   height="1000"
   id="svg2"
   sodipodi:version="0.32"
   inkscape:version="0.45.1"
   version="1.0"
   sodipodi:docbase="G:\DIN1451H"
   sodipodi:docname="times.svg"
   inkscape:output_extension="org.inkscape.output.svg.inkscape">
  <defs
     id="defs4" />
  <sodipodi:namedview
     id="base"
     pagecolor="#ffffff"
     bordercolor="#666666"
     borderopacity="1.0"
     gridtolerance="50.9"
     guidetolerance="10"
     objecttolerance="22.2"
     inkscape:pageopacity="0.0"
     inkscape:pageshadow="2"
     inkscape:zoom="0.70710678"
     inkscape:cx="200.33263"
     inkscape:cy="310.05717"
     inkscape:document-units="px"
     inkscape:current-layer="layer3"
     width="1000px"
     height="1000px"
     showgrid="true"
     gridspacingx="10px"
     gridspacingy="10px"
     gridempspacing="10"
     inkscape:grid-points="true"
     inkscape:grid-bbox="false"
     inkscape:object-paths="false"
     inkscape:object-points="true"
     inkscape:window-width="1103"
     inkscape:window-height="1121"
     inkscape:window-x="159"
     inkscape:window-y="8" />
  <metadata
     id="metadata7">
    <rdf:RDF>
      <cc:Work
         rdf:about="">
        <dc:format>image/svg+xml</dc:format>
        <dc:type
           rdf:resource="http://purl.org/dc/dcmitype/StillImage" />
      </cc:Work>
    </rdf:RDF>
  </metadata>
  <g
     inkscape:groupmode="layer"
     id="layer3"
     style="display:inline">
    <path
       style="fill:none;fill-opacity:1;fill-rule:evenodd;stroke:#000000;stroke-width:1;stroke-linecap:round;stroke-linejoin:miter;stroke-miterlimit:4;stroke-dasharray:none;stroke-opacity:1"
       d="M 99.46875,549.5 C 79.130092,549.52435 60.83249,561.86493 53.189076,580.71274 C 45.545663,599.56055 50.079441,621.16002 64.65625,635.34375 L 129.3125,700 L 64.65625,764.65625 C 51.405934,777.15325 45.99855,795.86641 50.540898,813.5048 C 55.083245,831.14319 68.856808,844.91676 86.495201,849.4591 C 104.13359,854.00145 122.84675,848.59407 135.34375,835.34375 L 200,770.6875 L 264.65625,835.34375 C 277.15325,848.59407 295.86641,854.00145 313.5048,849.4591 C 331.14319,844.91676 344.91676,831.14319 349.4591,813.5048 C 354.00145,795.86641 348.59407,777.15325 335.34375,764.65625 L 270.6875,700 L 335.34375,635.34375 C 348.59407,622.84675 354.00145,604.13359 349.4591,586.4952 C 344.91676,568.85681 331.14319,555.08324 313.5048,550.5409 C 295.86641,545.99855 277.15325,551.40593 264.65625,564.65625 L 200,629.3125 L 135.34375,564.65625 C 125.92497,554.96368 112.9839,549.49642 99.46875,549.5 L 99.46875,549.5 z "
       id="path2158" />
  </g>
</svg>
