<?xml version="1.0" encoding="UTF-8" standalone="no"?>
<!-- Created with Inkscape (http://www.inkscape.org/) -->
<svg
   xmlns:dc="http://purl.org/dc/elements/1.1/"
   xmlns:cc="http://web.resource.org/cc/"
   xmlns:rdf="http://www.w3.org/1999/02/22-rdf-syntax-ns#"
   xmlns:svg="http://www.w3.org/2000/svg"
   xmlns="http://www.w3.org/2000/svg"
   xmlns:sodipodi="http://sodipodi.sourceforge.net/DTD/sodipodi-0.dtd"
   xmlns:inkscape="http://www.inkscape.org/namespaces/inkscape"
   width="1000"
   height="1000"
   id="svg2"
   sodipodi:version="0.32"
   inkscape:version="0.45.1"
   version="1.0"
   sodipodi:docbase="C:\Documents and Settings\spindler.p\Desktop\DIN1451H"
   sodipodi:docname="X.svg"
   inkscape:output_extension="org.inkscape.output.svg.inkscape">
  <defs
     id="defs4" />
  <sodipodi:namedview
     id="base"
     pagecolor="#ffffff"
     bordercolor="#666666"
     borderopacity="1.0"
     gridtolerance="50.9"
     guidetolerance="10"
     objecttolerance="22.2"
     inkscape:pageopacity="0.0"
     inkscape:pageshadow="2"
     inkscape:zoom="0.5"
     inkscape:cx="540.96905"
     inkscape:cy="432.7162"
     inkscape:document-units="px"
     inkscape:current-layer="layer1"
     width="1000px"
     height="1000px"
     showgrid="true"
     gridspacingx="10px"
     gridspacingy="10px"
     gridempspacing="10"
     inkscape:grid-points="true"
     inkscape:grid-bbox="false"
     inkscape:object-paths="false"
     inkscape:object-points="true"
     inkscape:window-width="963"
     inkscape:window-height="1010"
     inkscape:window-x="479"
     inkscape:window-y="58" />
  <metadata
     id="metadata7">
    <rdf:RDF>
      <cc:Work
         rdf:about="">
        <dc:format>image/svg+xml</dc:format>
        <dc:type
           rdf:resource="http://purl.org/dc/dcmitype/StillImage" />
      </cc:Work>
    </rdf:RDF>
  </metadata>
  <g
     inkscape:label="Layer 1"
     inkscape:groupmode="layer"
     id="layer1">
    <path
       style="fill:none;fill-opacity:1;fill-rule:evenodd;stroke:#000000;stroke-width:1;stroke-linecap:round;stroke-linejoin:round;stroke-miterlimit:4;stroke-opacity:1;stroke-dasharray:none"
       d="M 99.46875,249.40625 C 80.921494,249.45709 63.925945,259.76955 55.315695,276.19717 C 46.705444,292.6248 47.895071,312.46869 58.40625,327.75 L 239.90625,600 L 58.40625,872.25 C 48.219803,887.10893 46.813453,906.29858 54.724769,922.48384 C 62.636084,938.66911 78.641955,949.34771 96.62426,950.43783 C 114.60656,951.52795 131.7852,942.86105 141.59375,927.75 L 300,690.125 L 458.40625,927.75 C 468.2148,942.86105 485.39344,951.52795 503.37574,950.43783 C 521.35804,949.34771 537.36392,938.66911 545.27523,922.48384 C 553.18655,906.29858 551.7802,887.10893 541.59375,872.25 L 360.09375,600 L 541.59375,327.75 C 551.7802,312.89107 553.18655,293.70142 545.27523,277.51616 C 537.36392,261.33089 521.35804,250.65229 503.37574,249.56217 C 485.39344,248.47205 468.2148,257.13895 458.40625,272.25 L 300,509.875 L 141.59375,272.25 C 132.35256,257.96501 116.48223,249.35877 99.46875,249.40625 z "
       id="path2157" />
  </g>
</svg>
